<svg id="Capa_1" enable-background="new 0 0 512 512" height="512" viewBox="0 0 512 512" width="512" xmlns="http://www.w3.org/2000/svg"><g><path d="m497.234 170.195c-8.47-23.781-20.417-46.393-35.501-66.648-8.791-11.857-18.658-22.963-29.411-33.158l43.825-15.328c6.631-2.32 6.64-12.034.001-14.355l-107.948-37.756c-4.852-1.702-10.116 2.024-10.116 7.174v11.198c-27.159-11.826-55.842-18.79-85.439-20.716-34.804-2.264-69.239 2.57-102.359 14.371-38.17 13.592-71.594 35.254-99.344 64.387-6.764 7.1 4.249 17.589 11.011 10.489 26.092-27.392 57.528-47.764 93.435-60.549 60.253-21.468 124.942-18.351 182.695 8.698v96.763l-50.859 18.114c-23.483 8.363-35.784 34.273-27.421 57.757.24.673.479 1.346.719 2.019-5.466 1.565-13.742 3.565-11.654 11.225.784 2.877 3.193 5.061 6.146 5.53 3.465.551 7.334-1.479 10.62-2.401l13.591 38.163c4.051 11.376 12.291 20.493 23.2 25.672 10.909 5.18 23.181 5.799 34.557 1.748l1.016-.362 3.962 11.128c5.29 14.852 16.048 26.755 30.293 33.517 14.091 6.69 30.432 7.513 45.127 2.281l50.53-17.996c-5.308 18.854-12.878 36.977-22.589 54.034-6.241 10.968-13.304 21.367-21.1 31.124-19.72-11.104-43.689-13.19-65.012-5.591l-117.673 41.921c-23.452 8.349-41.187 26.873-48.58 50.302-27.422-4.995-53.8-14.759-78.171-29.009l50.324-17.922c20.124-7.167 36.253-21.743 45.416-41.042s10.261-41.01 3.094-61.133l-5.4-15.163c0-.001 0-.001 0-.001-6.11-17.156-17.619-31.389-32.834-40.895 2.249-3.302 1.568-7.822-1.637-10.293-3.326-2.564-8.101-1.945-10.664 1.379-15.252.289-38.937-7.796-57.037 1.31l-35.317 12.575c5.598-11.263 7.305-24.44 4.066-37.315 15.001-11.839 21.117-32.21 14.552-50.641l-4.149-11.65c-8.364-23.484-34.273-35.785-57.757-27.421l-16.734 5.959c7.383-19.718 17.284-38.352 29.549-55.557 5.692-7.986-6.691-16.811-12.384-8.827-16.196 22.722-28.523 47.783-36.642 74.491-19.788 61.481-12.741 130.675 15.729 188.225 25.508 51.564 68.497 93.292 120.514 117.781 58.281 27.438 125.982 31.631 187.264 11.813 59.492-19.24 110.656-60.234 142.248-114.209 33.672-57.53 43.663-127.211 27.339-191.856-1.992-7.891-4.36-15.687-7.091-23.354zm-262.443 325.693c-2.188-.197-4.373-.426-6.555-.681 6.376-17.789 20.273-31.78 38.402-38.234l117.676-41.923c16.232-5.783 34.408-4.639 49.802 3.102-38.965 42.767-93.113 70.467-150.587 77.111-16.17 1.869-32.526 2.066-48.738.625zm-182.246-315.832c15.586-5.55 32.779 2.613 38.329 18.197l4.149 11.65c4.817 13.523-.649 28.618-12.996 35.892-3.142 1.851-4.528 5.673-3.301 9.108l.229.643c7.216 20.261-3.397 42.615-23.659 49.831-3.956 1.409-6.021 5.758-4.612 9.714 1.41 3.956 5.762 6.021 9.714 4.612l70.751-25.197c13.545-4.823 27.974-5.009 41.434-.682-3.419 5.348-6.634 10.892-9.615 16.598-1.944 3.723-.503 8.316 3.219 10.26 2.572 1.538 7.791.971 10.26-3.219 3.116-5.966 6.51-11.73 10.132-17.26 12.685 7.695 22.269 19.411 27.314 33.578l5.4 15.163c5.805 16.296 4.915 33.879-2.506 49.509s-20.482 27.434-36.78 33.238l-61.454 21.886c-30.508-21.18-55.896-49.389-73.654-82.012-19.442-35.717-29.799-76.303-29.562-116.98.127-21.835 3.324-43.62 9.339-64.605zm320.747-159.214 77.312 27.041-35.349 12.364c-.017.006-.035.009-.052.014l-41.91 14.663v-41.706-12.376zm-.002 70.194 42.765-14.957c9.81 8.709 18.885 18.223 27.121 28.379l-69.886 24.89zm58.987 233.792c-11.03 3.929-22.928 3.327-33.504-1.693-10.575-5.02-18.561-13.856-22.487-24.881l-6.514-18.29c-3.003-8.434-12.233-3.715-17.893-1.699-7.551 2.69-15.693 2.275-22.933-1.16-7.239-3.436-12.706-9.487-15.395-17.037l-13.039-36.611c3.914-.777 7.881-1.454 11.896-2.012 4.159-.578 7.063-4.418 6.485-8.578s-4.41-7.061-8.578-6.485c-3.549-1.089-14.953 6.359-16.187-.849-5.55-15.585 2.613-32.778 18.197-38.328l45.757-16.296v25.706c-16.527 3.51-28.966 18.212-28.966 35.769 0 20.166 16.405 36.571 36.57 36.571s36.57-16.405 36.57-36.571c0-17.558-12.439-32.26-28.966-35.769v-31.122l79.519-28.321c29.872 42.339 45.553 94.243 43.991 146.044-.408 13.525-1.945 27.017-4.623 40.281zm-66.59-104.841c4.2 0 7.604-3.404 7.604-7.604v-19.939c8.031 3.074 13.759 10.84 13.759 19.939 0 11.78-9.583 21.364-21.363 21.364s-21.363-9.584-21.363-21.364c0-9.099 5.728-16.866 13.759-19.939v19.939c0 4.2 3.404 7.604 7.604 7.604z"/><path d="m270.368 125.297c-8.813 4.3-2.139 17.974 6.671 13.665 22.02-10.749 32.418-36.286 24.186-59.399-8.797-24.698-36.758-38.015-61.509-29.202l-67.138 23.911c-24.699 8.796-38.017 36.758-29.202 61.509 8.796 24.696 36.753 38.019 61.51 29.201l37.074-13.21c9.238-3.29 4.133-17.618-5.104-14.324l-37.074 13.209c-16.933 6.033-36.063-3.083-42.08-19.978-6.031-16.933 3.082-36.063 19.978-42.08l67.139-23.911c16.933-6.032 36.064 3.082 42.08 19.978 5.631 15.812-1.475 33.28-16.531 40.631z"/><path d="m150.954 402.22c20.633 0 37.419-16.785 37.419-37.418s-16.786-37.418-37.419-37.418c-20.632 0-37.418 16.785-37.418 37.418s16.786 37.418 37.418 37.418zm-1.337-59.585c-.488.651-.884 1.386-1.15 2.203-3.632 11.144-4.942 18.317-4.996 18.616-.744 4.13 1.999 8.077 6.127 8.825.458.083.914.124 1.364.124 3.603 0 6.804-2.574 7.474-6.244.011-.064 1.212-6.548 4.49-16.61.352-1.079.441-2.179.317-3.237 5.976 3.985 9.923 10.784 9.923 18.491 0 12.247-9.964 22.211-22.212 22.211-12.247 0-22.211-9.964-22.211-22.211 0-11.799 9.248-21.474 20.874-22.168z"/><path d="m239.442 229.722c-10.904 6.144-21.229 13.461-30.69 21.746-7.33 6.421 2.574 17.961 10.018 11.441 8.676-7.598 18.143-14.305 28.138-19.938 3.658-2.062 4.953-6.699 2.891-10.357-2.061-3.659-6.697-4.95-10.357-2.892z"/><path d="m329.765 384.538c.848 0 1.709-.143 2.552-.444l34.017-12.121c3.955-1.409 6.02-5.758 4.61-9.714-1.41-3.957-5.761-6.022-9.714-4.61l-34.017 12.121c-7.809 2.782-5.772 14.768 2.552 14.768z"/><path d="m278.134 372.399c.848 0 1.709-.143 2.552-.444l34.017-12.12c3.955-1.409 6.02-5.758 4.61-9.714s-5.763-6.023-9.714-4.61l-34.017 12.12c-7.81 2.781-5.773 14.768 2.552 14.768z"/></g></svg>